<?xml version="1.0" encoding="iso-8859-1"?>
<!-- Generator: Adobe Illustrator 19.0.0, SVG Export Plug-In . SVG Version: 6.00 Build 0)  -->
<svg version="1.1" id="Layer_1" xmlns="http://www.w3.org/2000/svg" xmlns:xlink="http://www.w3.org/1999/xlink" x="0px" y="0px"
	 viewBox="0 0 511.999 511.999" style="enable-background:new 0 0 511.999 511.999;" xml:space="preserve">
<g fill="__GREY__">
    <polygon points="292.921,320.679 277.156,360.489 277.156,406.5 305.892,406.5 316.392,379.989 		"/>
    <circle cx="138.528" cy="103.937" r="40.149"/>
    <path d="M253.166,197.788c-1.875-5.77-6.367-9.943-11.73-11.675c0-16.822,0-8.062,0-18.525
        c7.805-2.635,12.552-10.247,11.772-18.201l-3.695-37.69H222.22l-3.695,37.69c-0.781,7.96,3.973,15.567,11.772,18.201
        c0,6.624,0,12.737,0,18.509c-0.018,0.006-0.036,0.009-0.053,0.015l-63.559,20.662l-42.12-38.779l34.522,21.557l0.009-0.587
        c0.266-16.921-13.326-30.822-30.241-30.942l-13.02-0.094c-25.199-0.18-45.712,20.253-45.643,45.441l0.242,88.317
        c0.039,14.092,9.761,26.415,23.654,29.602h-38.29L29.836,189.216c-1.604-8.161-9.522-13.473-17.68-11.871
        c-8.16,1.604-13.475,9.519-11.871,17.68l28.351,144.227c1.388,7.062,7.579,12.154,14.775,12.154h2.592v0.09l-32.037,83.068
        c-1.995,5.174,0.582,10.983,5.754,12.978c5.176,1.995,10.985-0.584,12.978-5.754l34.823-90.293l0.035-0.09h57.149l19.668,50.999
        l-6.31,15.945c-4.436,11.21,1.056,23.895,12.265,28.331c11.209,4.435,23.895-1.055,28.331-12.265
        c1.147-2.9,45.763-115.644,48.289-122.029h-36.41v0c-15.971,0-28.965-12.994-28.965-28.965c0-1.344,0.099-2.664,0.277-3.959
        l-4.185,0.012l0.311-19.729c-7-0.459-13.501-4.143-17.447-10.032l-30.617-45.747l39.95,36.781c0.061,0.057,0.128,0.104,0.19,0.159
        c4.948,4.436,11.727,5.683,17.691,3.776c0.021-0.007,0.043-0.011,0.066-0.018l73.678-23.951
        C251.045,217.607,256.273,207.343,253.166,197.788z M148.818,351.405c8.316,0,15.058-6.742,15.058-15.058
        c0-5.696-3.164-10.651-7.829-13.209l19.717-0.058l-20.491,51.784l-9.047-23.459H148.818z"/>
    <path d="M480.363,145.981c-3.194,0.243-6.239,0.179-8.939-5.323c-1.638-3.35-2.751-8.235-3.379-13.669
        c-2.214-18.644,0.428-32.369-4.211-41.789c-4.191-8.509-12.945-12.48-20.999-12.808c-6.724-0.363-13.596,1.606-19.461,4.698
        c-8.743-9.701-22.036-14.961-35.912-12.842c-21.921,3.348-36.977,23.833-33.629,45.754c3.35,21.922,23.834,36.978,45.755,33.629
        c20.45-3.124,34.919-21.162,34.051-41.366c0.033-5.522,8.249-8.725,12.184-6.102c7.316,4.876,6.73,25.518,9.516,33.856
        c1.42,4.251,4.497,11.489,8.122,15.984c5.581,6.892,11.58,8.035,18.056,6.018c1.347-0.419,2.277-1.723,2.166-3.189
        C483.555,147.127,482.068,145.851,480.363,145.981z"/>
    <path d="M316.982,266.055H190.541c-9.229,0-16.71,7.482-16.71,16.71c0,9.229,7.482,16.71,16.71,16.71h52.081V418.1h-34.703
        c-8.316,0-15.058,6.742-15.058,15.058c0,8.316,6.742,15.058,15.058,15.058h91.687c8.316,0,15.058-6.742,15.058-15.058
        c0-8.316-6.742-15.058-15.058-15.058h-34.704V299.476h52.081c9.229,0,16.71-7.482,16.71-16.71
        C333.692,273.537,326.211,266.055,316.982,266.055z"/>
    <path d="M499.842,177.344c-8.154-1.603-16.075,3.711-17.68,11.871l-20.68,105.202c0.192-2.062,0.116,4.449,0.374-89.889
        c0.071-25.837-20.974-46.774-46.796-46.589l-11.863,0.085c-16.923,0.121-30.508,14.028-30.241,30.942l0.29,18.427l22.884-21.828
        l-24.238,35.147l-59.616-6.682c0-16.42,0-7.781,0-18.035c7.818-2.64,12.549-10.261,11.772-18.201l-3.695-37.69h-27.294
        l-3.695,37.69c-0.781,7.961,3.973,15.567,11.772,18.201c0,4.808,0,15.011,0,17.144c-8.47,0.723-15.526,7.33-16.51,16.096
        c-1.118,9.984,6.068,18.985,16.052,20.105c84.359,9.455,78.529,8.853,80.011,8.853c5.935,0,11.555-2.908,14.972-7.864l24.8-35.964
        l-15.04,41.75c-3.389,9.407-12.748,14.942-22.268,13.874c-6.912-0.781-4.946-0.559-8.94-1.007l0.165,10.491l-28.723-0.084
        c0.185,1.318,0.286,2.663,0.286,4.031c0,15.971-12.994,28.965-28.965,28.965h-11.882l48.289,122.029
        c4.436,11.209,17.117,16.701,28.331,12.265c11.21-4.436,16.701-17.12,12.265-28.331l-8.002-20.222
        c9.235-23.947,7.307-18.947,18.019-46.721h23.729l0.035,0.09l34.823,90.293c1.537,3.986,5.338,6.429,9.369,6.429
        c1.201,0,2.423-0.217,3.611-0.675c5.174-1.995,7.749-7.806,5.754-12.978l-32.035-83.068v-0.09h19.303
        c7.197,0,13.387-5.092,14.775-12.154l28.351-144.228C513.317,186.864,508.002,178.948,499.842,177.344z M375.085,370.586
        l-7.591-19.182h14.988L375.085,370.586z M456.2,321.289c-6.763,0-11.181,0-18.235,0c9.891-2.269,17.947-9.259,21.599-18.709
        C459.488,305.04,459.712,303.425,456.2,321.289z"/>
</g>
</svg>
