<?xml version="1.0" encoding="iso-8859-1"?>
<!-- Generator: Adobe Illustrator 17.1.0, SVG Export Plug-In . SVG Version: 6.00 Build 0)  -->
<!DOCTYPE svg PUBLIC "-//W3C//DTD SVG 1.1//EN" "http://www.w3.org/Graphics/SVG/1.1/DTD/svg11.dtd">
<svg version="1.1" id="Capa_1" xmlns="http://www.w3.org/2000/svg" xmlns:xlink="http://www.w3.org/1999/xlink" x="0px" y="0px"
	 viewBox="0 0 417.008 417.008" style="enable-background:new 0 0 417.008 417.008;" xml:space="preserve">
<g fill="__LIGHTGREY__">
	<path d="M407.008,339.064H373.78c-0.036,0-0.072,0-0.108,0h-29.89v-80.193c2.044-0.696,4.372-1.084,7.284-1.084
		c5.522,0,10-4.478,10-10v-23.961c0-27.57-22.43-50-50-50h-76.563v-55.884c0-5.522-4.478-10-10-10h-32c-5.523,0-10,4.478-10,10
		v55.884h-76.563c-27.57,0-50,22.43-50,50v23.961c0,5.522,4.478,10,10,10c2.912,0,5.241,0.388,7.284,1.084v80.192H43.314
		c-0.02,0-0.041,0-0.061,0H10c-5.523,0-10,4.478-10,10c0,5.523,4.477,10,10,10h25.023l9.128,45.765
		c0.933,4.677,5.038,8.044,9.807,8.044H363.05c4.769,0,8.874-3.367,9.807-8.044l9.128-45.765h25.023c5.522,0,10-4.477,10-10
		C417.008,343.542,412.53,339.064,407.008,339.064z M202.504,127.943h12v45.884h-12V127.943z M75.941,223.827
		c0-16.542,13.458-30,30-30h205.125c16.542,0,30,13.458,30,30v15.034c-9.35,2.142-15.236,7.097-20.202,11.276
		c-5.474,4.606-9.09,7.65-17.323,7.65c-8.233,0-11.85-3.044-17.323-7.65c-6.537-5.502-14.673-12.35-30.202-12.35
		c-15.528,0-23.662,6.848-30.198,12.35c-5.474,4.606-9.089,7.65-17.32,7.65c-8.232,0-11.847-3.044-17.32-7.65
		c-6.536-5.502-14.671-12.35-30.2-12.35c-15.528,0-23.662,6.848-30.198,12.35c-5.473,4.606-9.089,7.65-17.319,7.65
		c-8.23,0-11.847-3.044-17.318-7.65c-4.965-4.179-10.852-9.134-20.199-11.275V223.827z M93.226,272.736
		c5.09,2.88,11.489,5.052,20.233,5.052c15.528,0,23.662-6.848,30.199-12.35c5.473-4.607,9.088-7.65,17.318-7.65
		c8.232,0,11.848,3.044,17.321,7.65c6.536,5.502,14.671,12.35,30.199,12.35c15.528,0,23.663-6.848,30.2-12.35
		c5.473-4.608,9.088-7.65,17.318-7.65c8.233,0,11.85,3.044,17.323,7.65c6.537,5.502,14.673,12.35,30.202,12.35
		c8.748,0,15.15-2.173,20.241-5.055v66.331H93.226V272.736z M354.848,392.873H62.16l-6.743-33.809h306.174L354.848,392.873z"/>
	<path d="M208.504,97.943c20.349,0,36.904-16.556,36.904-36.904c0-17.166-22.385-45.162-29.245-53.334
		c-1.9-2.264-4.704-3.57-7.659-3.57c-2.955,0-5.759,1.307-7.659,3.57c-6.86,8.172-29.245,36.168-29.245,53.334
		C171.6,81.388,188.155,97.943,208.504,97.943z M208.507,30.298c9.092,12.27,16.901,25.48,16.901,30.741
		c0,9.321-7.583,16.904-16.904,16.904c-9.321,0-16.904-7.583-16.904-16.904C191.6,55.791,199.413,42.577,208.507,30.298z"/>
</g>
</svg>
