<?xml version="1.0" encoding="iso-8859-1"?>
<!-- Generator: Adobe Illustrator 19.0.0, SVG Export Plug-In . SVG Version: 6.00 Build 0)  -->
<svg version="1.1" id="Capa_1"
	xmlns="http://www.w3.org/2000/svg"
	xmlns:xlink="http://www.w3.org/1999/xlink" x="0px" y="0px" viewBox="0 0 296 296" style="enable-background:new 0 0 296 296;" xml:space="preserve">
	<g fill="__LIGHTGREY__">
		<path d="M271.333,34H247V24c0-13.233-10.767-24-24-24s-24,10.767-24,24v10h-27V24c0-13.233-10.767-24-24-24s-24,10.767-24,24v10H97
		V24C97,10.767,86.233,0,73,0S49,10.767,49,24v10H25.333C20.915,34,17,37.582,17,42v58v188c0,4.418,3.915,8,8.333,8h246
		c4.418,0,7.667-3.582,7.667-8V100V42C279,37.582,275.751,34,271.333,34z M73,16c4.411,0,8,3.589,8,8v28c0,4.411-3.589,8-8,8
		s-8-3.589-8-8V24C65,19.589,68.589,16,73,16z M148,16c4.411,0,8,3.589,8,8v28c0,4.411-3.589,8-8,8s-8-3.589-8-8V24
		C140,19.589,143.589,16,148,16z M223,16c4.411,0,8,3.589,8,8v28c0,4.411-3.589,8-8,8c-4.411,0-8-3.589-8-8V24
		C215,19.589,218.589,16,223,16z M33,171h63v47H33V171z M33,233h63v47H33V233z M111,233h72v47h-72V233z M198,233h65v47h-65V233z
		 M263,218h-65v-47h65V218z M183,218h-72v-47h72V218z M111,156v-48h72v48H111z M96,108v48H33v-48H96z M263,156h-65v-48h65V156z"/>
		<polygon points="61.908,149.611 85.689,123.742 74.646,113.59 60.428,129.057 54.237,124.014 44.763,135.643 	"/>
		<polygon points="158.145,113.59 143.927,129.057 137.736,124.014 128.262,135.643 145.407,149.611 169.188,123.742 	"/>
		<polygon points="227.407,149.611 251.188,123.742 240.145,113.59 225.927,129.057 219.736,124.014 210.262,135.643 	"/>
		<polygon points="74.646,175.59 60.428,191.057 54.237,186.014 44.763,197.643 61.908,211.611 85.689,185.742 	"/>
		<polygon points="145.407,211.611 169.188,185.742 158.145,175.59 143.927,191.057 137.736,186.014 128.262,197.643 	"/>
		<polygon points="227.407,211.611 251.188,185.742 240.145,175.59 225.927,191.057 219.736,186.014 210.262,197.643 	"/>
		<polygon points="74.646,238.59 60.428,254.057 54.237,249.014 44.763,260.643 61.908,274.611 85.689,248.742 	"/>
		<polygon points="158.145,238.59 143.927,254.057 137.736,249.014 128.262,260.643 145.407,274.611 169.188,248.742 	"/>
	</g>
</svg>
