<?xml version="1.0" encoding="iso-8859-1"?>
<!-- Generator: Adobe Illustrator 18.0.0, SVG Export Plug-In . SVG Version: 6.00 Build 0)  -->
<!DOCTYPE svg PUBLIC "-//W3C//DTD SVG 1.1//EN" "http://www.w3.org/Graphics/SVG/1.1/DTD/svg11.dtd">
<svg version="1.1" id="Capa_1" xmlns="http://www.w3.org/2000/svg" xmlns:xlink="http://www.w3.org/1999/xlink" x="0px" y="0px"
	 viewBox="0 0 425.874 425.874" style="enable-background:new 0 0 425.874 425.874;" xml:space="preserve">
<g fill="__LIGHTGREY__">
    <path d="M273.352,415.874H143.99v-57.385c7.034,3.18,13.878,4.797,20.424,4.797c26.199,0,38.102-24.892,38.596-25.951
        c1.103-2.364,0.201-5.18-2.07-6.464c-9.222-5.218-18.259-7.863-26.858-7.863c-13.591,0-23.56,6.413-30.092,12.735v-80.654
        c0-2.762-2.239-5-5-5c-2.761,0-5,2.238-5,5v25.885c-5.927-6.76-14.934-11.877-28.19-11.877c-1.688,0-3.446,0.084-5.224,0.25
        c-2.341,0.219-4.214,2.039-4.499,4.373c-0.091,0.749-2.121,18.477,7.974,29.876c5.368,6.063,12.949,9.137,22.533,9.137
        c0,0,0.001,0,0.001,0c2.33,0,4.818-0.219,7.406-0.597v103.738H37.449c-2.761,0-5,2.238-5,5c0,2.762,2.239,5,5,5h235.903
        c2.761,0,5-2.238,5-5C278.352,418.112,276.113,415.874,273.352,415.874z M174.082,333.008c5.507,0,11.356,1.427,17.437,4.249
        c-3.968,5.921-12.831,16.029-27.104,16.029c-5.716,0-11.862-1.632-18.323-4.856C150.344,342.685,159.65,333.008,174.082,333.008z
         M126.583,302.732c-6.671,0-11.584-1.876-15.019-5.735c-4.687-5.268-5.618-13.121-5.704-17.9
        c20.142,0.032,25.9,15.384,27.519,23.053C130.96,302.537,128.686,302.732,126.583,302.732z" fill="__GREEN__"/>
    <g fill="__BLUE__">
        <path d="M136.246,190.249c-2.716-0.527-5.338,1.232-5.871,3.941c-0.891,4.529-1.618,9.319-2.163,14.235
            c-0.304,2.745,1.675,5.217,4.419,5.521c0.187,0.02,0.373,0.03,0.557,0.03c2.515,0,4.68-1.893,4.963-4.449
            c0.514-4.641,1.199-9.151,2.036-13.407C140.72,193.41,138.956,190.782,136.246,190.249z"/>
        <path d="M132.344,217.923c-2.79-0.128-5.089,2.029-5.205,4.787c-0.14,3.336-0.21,6.793-0.21,10.276
            c0,2.761,2.239,4.999,5,4.999c2.762,0,5-2.239,4.999-5.001c0-3.343,0.067-6.659,0.201-9.857
            C137.246,220.369,135.103,218.039,132.344,217.923z"/>
        <path d="M148.159,170.612c1.152-2.509,0.052-5.478-2.458-6.63c-2.51-1.151-5.478-0.052-6.63,2.457
            c-1.956,4.26-3.7,8.863-5.184,13.683c-0.813,2.639,0.667,5.438,3.307,6.25c0.49,0.151,0.986,0.223,1.473,0.223
            c2.137,0,4.115-1.381,4.777-3.529C144.799,178.664,146.386,174.475,148.159,170.612z"/>
        <path d="M147.628,160.476c0.86,0.584,1.837,0.864,2.804,0.864c1.601,0,3.174-0.768,4.141-2.192
            c2.509-3.695,5.298-7.039,8.289-9.936c1.983-1.921,2.034-5.087,0.112-7.07c-1.921-1.981-5.087-2.033-7.07-0.111
            c-3.48,3.372-6.712,7.241-9.604,11.501C144.749,155.814,145.344,158.925,147.628,160.476z"/>
        <path d="M153.131,184.994c-2.681-0.661-5.391,0.976-6.053,3.656c-1.1,4.454-2.02,9.237-2.733,14.218
            c-0.392,2.733,1.506,5.267,4.24,5.658c0.241,0.035,0.48,0.052,0.716,0.052c2.447,0,4.586-1.799,4.943-4.292
            c0.667-4.652,1.522-9.106,2.542-13.239C157.448,188.366,155.812,185.656,153.131,184.994z"/>
        <path d="M148.193,212.499c-2.76-0.16-5.137,1.904-5.319,4.659c-0.302,4.561-0.469,9.365-0.497,14.279
            c-0.016,2.761,2.21,5.013,4.971,5.028h0.029c2.748,0,4.984-2.22,5-4.972c0.027-4.713,0.187-9.314,0.476-13.676
            C153.034,215.063,150.948,212.682,148.193,212.499z"/>
        <path d="M165.139,159.857c-2.326-1.49-5.417-0.811-6.907,1.514c-2.53,3.95-4.796,8.429-6.734,13.312
            c-1.018,2.566,0.236,5.474,2.803,6.492c0.605,0.24,1.229,0.354,1.843,0.354c1.989,0,3.87-1.195,4.649-3.156
            c1.703-4.289,3.674-8.194,5.86-11.608C168.142,164.439,167.464,161.347,165.139,159.857z"/>
    </g>
    <path d="M391.829,97.955l-29.082-27.03l-1.486-45.508c-0.021-6.78-2.671-13.151-7.468-17.946C348.975,2.653,342.57,0,335.758,0
        s-13.216,2.653-18.033,7.47c-4.416,4.415-6.887,10.163-7.334,16.075c-1.488-0.192-3.042,0.269-4.182,1.408l-23.542,23.542
        l-34.324-34.324c-0.938-0.939-2.209-1.465-3.536-1.465s-2.598,0.527-3.536,1.465l-9.167,9.168c-1.953,1.952-1.953,5.118,0,7.07
        l34.324,34.325l-23.544,23.544c-1.902,1.902-1.958,4.969-0.126,6.939l11.097,11.939l-19.999,19.998l-32.514,0.562
        l-14.545-12.604c-1.493-1.294-3.608-1.586-5.398-0.749c-1.789,0.839-2.916,2.653-2.876,4.629l0.185,9.14
        c-2.663,0.799-6.4,2.215-10.713,4.706c-2.391,1.382-3.21,4.439-1.829,6.831c0.926,1.604,2.606,2.5,4.335,2.5
        c0.848,0,1.708-0.217,2.496-0.671c2.22-1.282,4.226-2.191,5.924-2.853l0.083,4.141c-2.688,1.072-6.589,3.1-10.877,6.869
        c-2.074,1.823-2.277,4.982-0.454,7.057c0.989,1.124,2.37,1.698,3.757,1.698c1.172,0,2.35-0.41,3.299-1.245
        c1.631-1.434,3.152-2.501,4.498-3.316l0.149,7.357c0.04,1.98,1.243,3.748,3.069,4.512c0.623,0.261,1.279,0.388,1.929,0.388
        c1.255,0,2.492-0.473,3.438-1.369l14.531-13.755l92.793,0.59l20.75,22.325c0.924,0.994,2.213,1.57,3.571,1.595
        c0.031,0.001,0.061,0.001,0.091,0.001c1.325,0,2.597-0.526,3.536-1.465l68.875-68.875c0.96-0.96,1.488-2.269,1.463-3.627
        C393.399,100.168,392.824,98.879,391.829,97.955z M189.147,149.705l-0.398-19.669l5.91,5.121l0.567,8.793L189.147,149.705z
         M324.796,14.541c2.928-2.929,6.821-4.541,10.962-4.541c4.141,0,8.035,1.613,10.963,4.542c2.928,2.927,4.54,6.819,4.539,10.96
        c0,0.055,0.001,0.109,0.003,0.164l1.165,35.667l-29.865-27.758C318.845,27.518,319.742,19.595,324.796,14.541z M244.808,24.777
        l37.824,37.825l-2.097,2.096l-37.824-37.824L244.808,24.777z M253.366,91.94l20.135-20.135l3.5,3.499
        c0.977,0.976,2.256,1.465,3.536,1.465c1.279,0,2.559-0.488,3.535-1.464l9.168-9.167c0.938-0.938,1.465-2.21,1.465-3.536
        c0-1.326-0.527-2.598-1.464-3.535l-3.501-3.501l20.134-20.134l8.141,7.566l-57.082,57.082L253.366,91.94z M260.668,114.486
        l11.167,12.014l-23.587,0.407L260.668,114.486z M205.058,140.998l-0.215-3.34l76.142-1.315l4.804,5.169L205.058,140.998z
         M267.745,107.41l57.598-57.599l43.281,40.228l-60.65,60.652L267.745,107.41z M319.682,163.289l-4.897-5.269l61.168-61.169
        l5.27,4.897L319.682,163.289z"/>
</g>
</svg>
