<?xml version="1.0" encoding="iso-8859-1"?>
<!-- Generator: Adobe Illustrator 19.0.0, SVG Export Plug-In . SVG Version: 6.00 Build 0)  -->
<svg version="1.1" id="Layer_1"
	xmlns="http://www.w3.org/2000/svg"
	xmlns:xlink="http://www.w3.org/1999/xlink" x="0px" y="0px" viewBox="0 0 512 512" style="enable-background:new 0 0 512 512;" xml:space="preserve">
	<g transform="translate(0 -1)" fill="__GREY__">

		<path d="M505.752,241.915l-89.088-89.088c-88.737-88.737-232.591-88.737-321.327,0L6.248,241.915
				c-8.331,8.331-8.331,21.839,0,30.17l89.088,89.088c88.737,88.737,232.591,88.737,321.327,0l89.088-89.088
				C514.083,263.754,514.083,250.246,505.752,241.915z M386.494,331.003c-72.074,72.074-188.913,72.074-260.987,0L51.503,257
				l74.003-74.003c72.074-72.074,188.913-72.074,260.987,0L460.497,257L386.494,331.003z" />
		<path d="M256,150.333c-58.907,0-106.667,47.759-106.667,106.667S197.093,363.667,256,363.667S362.667,315.907,362.667,257
				S314.907,150.333,256,150.333z M256,321c-35.343,0-64-28.657-64-64s28.657-64,64-64s64,28.657,64,64S291.343,321,256,321z" />


	</g>
</svg>
