<?xml version="1.0" encoding="iso-8859-1"?>
<!-- Generator: Adobe Illustrator 16.0.4, SVG Export Plug-In . SVG Version: 6.00 Build 0)  -->
<!DOCTYPE svg PUBLIC "-//W3C//DTD SVG 1.1//EN" "http://www.w3.org/Graphics/SVG/1.1/DTD/svg11.dtd">
<svg version="1.1" id="Layer_1" xmlns="http://www.w3.org/2000/svg" xmlns:xlink="http://www.w3.org/1999/xlink" x="0px" y="0px"
	 width="512px" height="512px" viewBox="0 0 512 512" style="enable-background:new 0 0 512 512;" xml:space="preserve">
<rect id="background_1_" style="opacity:0;fill:#929292;" width="512" height="512"/>
<g>
	<radialGradient id="SVGID_1_" cx="251.7803" cy="259.1953" r="166.8501" gradientUnits="userSpaceOnUse">
		<stop  offset="0" style="stop-color:#FFF073"/>
		<stop  offset="0.2495" style="stop-color:#FFEF70"/>
		<stop  offset="0.4482" style="stop-color:#FFEB66"/>
		<stop  offset="0.6295" style="stop-color:#FFE455"/>
		<stop  offset="0.8003" style="stop-color:#FFDA3D"/>
		<stop  offset="0.9624" style="stop-color:#FFCE1F"/>
		<stop  offset="1" style="stop-color:#FFCB17"/>
	</radialGradient>
	<path style="fill:url(#SVGID_1_);" d="M251.781,426.046c-92.001,0-166.85-74.849-166.85-166.851S159.78,92.345,251.781,92.345
		c92.001,0,166.849,74.849,166.849,166.851S343.782,426.046,251.781,426.046z"/>
	<path style="fill:#FBB040;" d="M251.781,97.345c89.389,0,161.849,72.463,161.849,161.851c0,89.387-72.46,161.851-161.849,161.851
		c-89.387,0-161.85-72.464-161.85-161.851C89.931,169.808,162.394,97.345,251.781,97.345 M251.781,87.345
		c-23.195,0-45.702,4.545-66.895,13.509c-20.465,8.656-38.842,21.046-54.621,36.825c-15.779,15.779-28.169,34.156-36.825,54.622
		c-8.964,21.193-13.509,43.7-13.509,66.895s4.545,45.702,13.509,66.895c8.656,20.465,21.046,38.843,36.825,54.622
		c15.779,15.779,34.156,28.169,54.621,36.825c21.193,8.964,43.7,13.509,66.895,13.509s45.702-4.545,66.896-13.509
		c20.465-8.656,38.842-21.046,54.621-36.825c15.778-15.779,28.168-34.157,36.823-54.622c8.964-21.193,13.509-43.699,13.509-66.895
		s-4.545-45.702-13.509-66.895c-8.655-20.465-21.045-38.842-36.823-54.622c-15.779-15.779-34.156-28.169-54.621-36.825
		C297.483,91.89,274.977,87.345,251.781,87.345L251.781,87.345z"/>
</g>
<g>
	<linearGradient id="SVGID_2_" gradientUnits="userSpaceOnUse" x1="251.7803" y1="97.3447" x2="251.7803" y2="421.0464">
		<stop  offset="0.6339" style="stop-color:#FFF073;stop-opacity:0"/>
		<stop  offset="1" style="stop-color:#FEFF96"/>
	</linearGradient>
	<circle style="fill:url(#SVGID_2_);" cx="251.781" cy="259.195" r="161.849"/>
</g>
<linearGradient id="SVGID_3_" gradientUnits="userSpaceOnUse" x1="251.98" y1="219.5801" x2="251.98" y2="111.2642">
	<stop  offset="0" style="stop-color:#FFFFFF;stop-opacity:0.2"/>
	<stop  offset="0.9081" style="stop-color:#FFFFFF;stop-opacity:0.7449"/>
	<stop  offset="1" style="stop-color:#FFFFFF;stop-opacity:0.8"/>
</linearGradient>
<ellipse style="fill:url(#SVGID_3_);" cx="251.98" cy="165.423" rx="93.873" ry="54.157"/>
</svg>
