<?xml version='1.0' encoding='iso-8859-1'?>
<svg version="1.1"
  xmlns="http://www.w3.org/2000/svg" viewBox="0 0 511 511"
  xmlns:xlink="http://www.w3.org/1999/xlink" enable-background="new 0 0 511 511">
  <g fill="__GREEN__">
    <path d="M436.166,74.834C387.908,26.577,323.747,0,255.5,0S123.092,26.577,74.834,74.834C26.577,123.092,0,187.254,0,255.5   s26.577,132.408,74.834,180.666C123.092,484.423,187.253,511,255.5,511s132.408-26.577,180.666-74.834   C484.423,387.908,511,323.747,511,255.5S484.423,123.092,436.166,74.834z M425.559,425.559C380.135,470.984,319.74,496,255.5,496   s-124.635-25.016-170.059-70.441C40.016,380.135,15,319.74,15,255.5c0-64.24,25.016-124.635,70.441-170.059   C130.865,40.016,191.26,15,255.5,15s124.635,25.016,170.059,70.441C470.984,130.865,496,191.26,496,255.5   C496,319.74,470.984,380.135,425.559,425.559z"/>
    <path d="m144.856,78.859l8.148,14.114c1.389,2.406 3.91,3.751 6.502,3.751 1.272,0 2.562-0.324 3.743-1.006 3.587-2.071 4.816-6.658 2.745-10.245l-8.161-14.135c27.078-14.418 57.687-23.034 90.167-24.188v16.35c0,4.142 3.358,7.5 7.5,7.5s7.5-3.358 7.5-7.5v-16.365c31.712,1.123 62.433,9.37 90.205,24.134l-8.2,14.204c-2.071,3.587-0.842,8.174 2.745,10.245 1.181,0.682 2.471,1.006 3.743,1.006 2.592,0 5.113-1.345 6.502-3.751l8.193-14.19c1.727,1.085 3.445,2.188 5.145,3.326 3.443,2.304 8.101,1.382 10.405-2.06 2.304-3.442 1.382-8.1-2.06-10.405-36.79-24.627-79.729-37.644-124.178-37.644-59.699,0-115.825,23.248-158.039,65.462-42.213,42.213-65.461,98.339-65.461,158.038 0,55.077 20.209,107.99 56.905,148.994 1.481,1.655 3.532,2.498 5.591,2.498 1.781,0 3.568-0.63 4.999-1.911 3.087-2.762 3.35-7.504 0.587-10.591-7.942-8.874-15.044-18.353-21.287-28.31l14.178-8.186c3.587-2.071 4.816-6.658 2.745-10.245-2.071-3.588-6.658-4.815-10.245-2.745l-14.183,8.188c-14.684-27.67-23.007-58.455-24.143-90.192h16.353c4.142,0 7.5-3.358 7.5-7.5s-3.358-7.5-7.5-7.5h-16.351c1.155-32.48 9.771-63.089 24.188-90.166l14.135,8.161c1.181,0.682 2.471,1.006 3.743,1.006 2.592,0 5.113-1.345 6.502-3.751 2.071-3.587 0.842-8.174-2.745-10.245l-14.114-8.149c16.751-26.644 39.354-49.247 65.998-65.997z"/>
    <path d="m441.357,131.325c-2.304-3.442-6.963-4.365-10.404-2.061-3.442,2.304-4.365,6.962-2.061,10.405 1.137,1.699 2.24,3.416 3.324,5.143l-14.19,8.193c-3.587,2.071-4.816,6.658-2.745,10.245 1.389,2.406 3.91,3.751 6.502,3.751 1.272,0 2.562-0.324 3.743-1.006l14.204-8.2c14.764,27.772 23.011,58.493 24.135,90.205h-16.365c-4.142,0-7.5,3.358-7.5,7.5s3.358,7.5 7.5,7.5h16.351c-1.155,32.48-9.771,63.089-24.188,90.166l-14.135-8.161c-3.588-2.072-8.174-0.843-10.245,2.745-2.071,3.587-0.842,8.174 2.745,10.245l14.114,8.149c-16.749,26.644-39.353,49.248-65.997,65.997l-8.149-14.114c-2.071-3.588-6.658-4.817-10.245-2.745-3.587,2.071-4.816,6.658-2.745,10.245l8.161,14.135c-27.078,14.418-57.687,23.034-90.167,24.189v-16.351c0-4.142-3.358-7.5-7.5-7.5s-7.5,3.358-7.5,7.5v16.354c-31.57-1.146-62.468-9.492-90.183-24.163l8.178-14.164c2.071-3.587 0.842-8.174-2.745-10.245-3.587-2.072-8.174-0.843-10.245,2.745l-8.18,14.167c-7.142-4.467-14.031-9.37-20.609-14.708-3.217-2.61-7.939-2.119-10.55,1.098-2.61,3.216-2.119,7.939 1.098,10.55 9.083,7.371 18.714,13.972 28.774,19.785 0.072,0.045 0.138,0.094 0.212,0.137 0.063,0.036 0.129,0.06 0.192,0.094 33.734,19.401 72.305,29.85 111.558,29.85 59.699,0 115.825-23.248 158.039-65.462 42.213-42.213 65.461-98.339 65.461-158.038 0-44.447-13.017-87.386-37.643-124.175z"/>
    <path d="m394.491,100.083c5.389,4.823 10.587,9.985 15.451,15.344 1.48,1.631 3.514,2.459 5.556,2.459 1.798,0 3.602-0.643 5.038-1.946 3.067-2.784 3.297-7.527 0.513-10.594-5.211-5.742-10.781-11.273-16.556-16.441-3.086-2.762-7.828-2.5-10.59,0.587-2.761,3.087-2.498,7.829 0.588,10.591z"/>
    <path d="m232,255.5c0,12.958 10.542,23.5 23.5,23.5 10.336,0 19.128-6.71 22.266-16h19.469c3.138,9.29 11.93,16 22.266,16h56c12.958,0 23.5-10.542 23.5-23.5s-10.543-23.5-23.501-23.5h-56c-10.336,0-19.128,6.71-22.266,16h-19.469c-2.342-6.933-7.833-12.424-14.766-14.766v-19.469c9.29-3.138 16-11.93 16-22.266v-80c0-12.958-10.542-23.5-23.5-23.5s-23.499,10.543-23.499,23.501v80c0,10.336 6.71,19.128 16,22.266v19.469c-9.29,3.137-16,11.929-16,22.265zm87.5-8.5h56c4.687,0 8.5,3.813 8.5,8.5s-3.813,8.5-8.5,8.5h-56c-4.687,0-8.5-3.813-8.5-8.5s3.813-8.5 8.5-8.5zm-64,17c-4.687,0-8.5-3.813-8.5-8.5s3.813-8.5 8.5-8.5 8.5,3.813 8.5,8.5-3.813,8.5-8.5,8.5zm-8.5-152.5c0-4.687 3.813-8.5 8.5-8.5s8.5,3.813 8.5,8.5v80c0,4.687-3.813,8.5-8.5,8.5s-8.5-3.813-8.5-8.5v-80z"/>
  </g>
</svg>
