<?xml version="1.0" encoding="iso-8859-1"?>
<!-- Generator: Adobe Illustrator 19.0.0, SVG Export Plug-In . SVG Version: 6.00 Build 0)  -->
<svg version="1.1" id="Layer_1" xmlns="http://www.w3.org/2000/svg" xmlns:xlink="http://www.w3.org/1999/xlink" x="0px" y="0px"
	 viewBox="0 0 512 512" style="enable-background:new 0 0 512 512;" xml:space="preserve">
<g fill="__GREY__">
     <path d="M461.574,107.922c-38.898-55.41-97.045-92.356-163.73-104.032c-38.199-6.687-76.26-4.745-113.124,5.777
     c-4.404,1.257-6.955,5.847-5.697,10.251c1.257,4.405,5.852,6.955,10.251,5.697c34.432-9.829,70.001-11.643,105.711-5.389
     c62.324,10.913,116.666,45.441,153.017,97.225c36.353,51.785,50.364,114.626,39.451,176.947s-45.44,116.665-97.225,153.016
     c-9.707,6.814-19.971,12.943-30.508,18.218c-4.095,2.05-5.754,7.031-3.704,11.126c1.455,2.905,4.382,4.583,7.422,4.583
     c1.247,0,2.513-0.283,3.705-0.879c11.266-5.639,22.239-12.192,32.614-19.474c55.409-38.897,92.354-97.045,104.031-163.73
     C515.462,230.574,500.471,163.332,461.574,107.922z"/>
     <path d="M407.21,146.085c-28.747-40.951-71.651-68.243-120.806-76.851C187.51,51.923,92.85,116.031,71.429,213.135l-49.048-8.589
     c12.401-58.904,46.14-110.114,95.656-144.872c12.328-8.655,25.516-16.17,39.197-22.336c4.176-1.882,6.035-6.792,4.153-10.967
     c-1.883-4.175-6.795-6.036-10.968-4.152c-14.628,6.594-28.729,14.629-41.911,23.882C53.096,84.999,16.151,143.146,4.474,209.83
     c-0.379,2.167,0.117,4.395,1.381,6.195c1.264,1.8,3.191,3.025,5.357,3.404l65.347,11.441c4.518,0.789,8.809-2.226,9.599-6.738
     c16.217-92.62,104.771-154.781,197.386-138.562c92.621,16.218,154.781,104.763,138.563,197.385
     c-7.844,44.792-32.719,83.892-70.043,110.094c-37.326,26.203-82.555,36.315-127.342,28.471
     c-10.71-1.875-21.182-4.744-31.248-8.558l20.039-25.568c1.863-2.377,2.285-5.58,1.105-8.36c-1.182-2.78-3.781-4.697-6.785-5.005
     l-143.89-14.762c-2.837-0.291-5.617,0.892-7.374,3.133c-1.757,2.242-2.24,5.228-1.28,7.909l48.724,136.19
     c1.017,2.844,3.5,4.909,6.481,5.392c0.442,0.072,0.887,0.107,1.327,0.107c2.523,0,4.939-1.153,6.526-3.177l22.374-28.548
     c21.903,10.953,45.316,18.658,69.698,22.927c41.008,7.18,83.342,4.201,122.426-8.614c4.352-1.426,6.722-6.111,5.296-10.463
     c-1.427-4.352-6.11-6.725-10.464-5.296c-36.504,11.97-76.06,14.749-114.398,8.037c-24.959-4.371-48.825-12.587-70.936-24.423
     c-3.551-1.901-7.954-0.974-10.44,2.196l-17.34,22.124L75.334,377.109l115.852,11.886l-17.495,22.322
     c-1.57,2.003-2.133,4.617-1.527,7.089c0.605,2.471,2.313,4.529,4.632,5.579c14.283,6.469,29.445,11.135,45.063,13.87
     c49.161,8.606,98.781-2.485,139.732-31.233c40.951-28.748,68.244-71.651,76.851-120.807
     C447.049,236.66,435.957,187.036,407.21,146.085z"/>
     <path d="M379.809,234.521H278.599V133.31c0-4.58-3.712-8.292-8.292-8.292H226.08c-4.581,0-8.292,3.713-8.292,8.292v153.729
     c0,4.58,3.712,8.292,8.292,8.292h153.729c4.581,0,8.292-3.713,8.292-8.292v-44.226
     C388.102,238.234,384.39,234.521,379.809,234.521z M371.517,278.747H234.372V141.602h27.641v101.211
     c0,4.58,3.712,8.292,8.292,8.292h101.211V278.747z"/>
</g>
</svg>
