<svg width='200' height='200' fill="__GREY__" xmlns="http://www.w3.org/2000/svg" xmlns:sodipodi="http://sodipodi.sourceforge.net/DTD/sodipodi-0.dtd" viewBox="0 0 100 100" x="0px" y="0px">
    <path d="m 49.999935,42.0117 c -24.484739,0 -29.597456,27.430233 -32.71377,39.196948 C 14.169852,92.975355 23.591717,95 49.999935,95 76.408153,95 85.830024,92.97536 82.713702,81.208648 79.597391,69.441933 74.484674,42.0117 49.999935,42.0117 z" color="__GREY__"/>
    <path d="m 49.999935,37.890679 c -8.607238,0 -16.439822,-7.828172 -16.444236,-16.43541 C 33.551399,12.841413 41.386078,5 49.999935,5 c 8.613857,0 16.45085,7.839206 16.444236,16.455269 -0.0066,8.607238 -7.836999,16.43541 -16.444236,16.43541 z" color="__GREY__"/>
    <path d="M 79.637132,5.3068111 C 70.719621,14.22433 70.719621,28.68248 79.637142,37.6 l 2.306649,-2.306651 c -7.64359,-7.643587 -7.64359,-20.036291 0,-27.679882 L 79.637132,5.3068111 z" color="__GREY__"/>
    <path d="m 84.248501,9.910875 c -6.369649,6.369647 -6.369659,16.696903 0,23.06656 l 2.30665,-2.306651 c -5.09572,-5.095724 -5.09572,-13.357527 0,-18.453255 l -2.30665,-2.306654 z" color="__GREY__"/>
    <path d="m 88.861811,14.524188 c -3.82179,3.821795 -3.82179,10.018142 0,13.839935 l 2.30665,-2.30665 c -2.54786,-2.547863 -2.54785,-6.678768 1e-5,-9.226629 l -2.30666,-2.306656 z" color="__GREY__"/>
    <path d="M 20.36334,5.3068111 C 29.280851,14.22433 29.280851,28.68248 20.36333,37.6 l -2.30665,-2.306651 c 7.64359,-7.643587 7.64359,-20.036291 0,-27.679882 l 2.30666,-2.3066559 z" color="__GREY__"/>
    <path d="m 15.751971,9.910875 c 6.369649,6.369647 6.369659,16.696903 0,23.06656 L 13.44532,30.670784 c 5.095721,-5.095724 5.095721,-13.357527 0,-18.453255 l 2.306651,-2.306654 z" color="__GREY__"/>
    <path d="m 11.138661,14.524188 c 3.82179,3.821795 3.82179,10.018142 0,13.839935 L 8.83201,26.057473 c 2.54786,-2.547863 2.547851,-6.678768 -10e-6,-9.226629 l 2.306661,-2.306656 z" color="__GREY__"/>
</svg>
