<?xml version="1.0" encoding="utf-8"?>
<!-- Generator: Adobe Illustrator 21.1.0, SVG Export Plug-In . SVG Version: 6.00 Build 0)  -->
<svg version="1.1" id="Ebene_1" xmlns="http://www.w3.org/2000/svg" xmlns:xlink="http://www.w3.org/1999/xlink" x="0px" y="0px"
	 viewBox="0 0 24 24" style="enable-background:new 0 0 24 24;" xml:space="preserve">
<style type="text/css">
	.st0{fill:none;stroke:__GREY__;stroke-linecap:round;stroke-linejoin:round;stroke-miterlimit:10;}
	.st1{fill:none;stroke:__ORANGE__;stroke-linecap:round;stroke-linejoin:round;stroke-miterlimit:10;}
</style>
<title>icon-pressure</title>
<g>
	<path class="st0" d="M9.9,5c0,2.4-4.3,7.5-4.3,7.5S1.3,7.4,1.3,5c0-2.4,1.9-4.3,4.3-4.3S9.9,2.6,9.9,5z"/>
	<circle class="st0" cx="5.6" cy="5" r="1.6"/>
	<path class="st1" d="M22.7,15.8c0,2.4-4.3,7.5-4.3,7.5s-4.3-5.1-4.3-7.5c0-2.4,1.9-4.3,4.3-4.3S22.7,13.4,22.7,15.8z"/>
	<circle class="st1" cx="18.4" cy="15.8" r="1.6"/>
	<polyline class="st0" points="6.6,23.2 5.6,23.2 5.6,22.3 	"/>
	<line class="st0" x1="14.4" y1="23.2" x2="15.4" y2="23.2"/>
	<line class="st0" x1="11.5" y1="23.2" x2="12.5" y2="23.2"/>
	<line class="st0" x1="8.6" y1="23.2" x2="9.6" y2="23.2"/>
	<line class="st0" x1="5.6" y1="13.4" x2="5.6" y2="14.4"/>
	<line class="st0" x1="5.6" y1="16.4" x2="5.6" y2="17.4"/>
	<line class="st0" x1="5.6" y1="19.3" x2="5.6" y2="20.3"/>
</g>
</svg>
