<?xml version="1.0" encoding="UTF-8" standalone="no"?>
<svg xmlns:dc="http://purl.org/dc/elements/1.1/"
   xmlns:cc="http://creativecommons.org/ns#"
   xmlns:rdf="http://www.w3.org/1999/02/22-rdf-syntax-ns#"
   xmlns:svg="http://www.w3.org/2000/svg"
   xmlns="http://www.w3.org/2000/svg" xml:space="preserve" style="enable-background:new 0 0 512 512;" viewBox="0 0 512 512" y="0px" x="0px" id="Layer_1" version="1.1">
   <g fill="__LIGHTGREY__">
      <path id="path2" d="M483.555,256c0-92.796-79.528-171.416-189.102-186.935c-5.194-0.732-9.981,2.87-10.722,8.055    c-0.732,5.185,2.87,9.991,8.055,10.722C391.916,102.029,464.592,172.741,464.592,256c0,81.548-71.569,151.895-168.266,167.451    l46.97-46.97c3.704-3.704,3.704-9.704,0-13.407c-3.704-3.704-9.704-3.704-13.408,0l-66.37,66.37    c-3.704,3.704-3.704,9.704,0,13.407l66.37,66.37c1.852,1.852,4.278,2.778,6.704,2.778c2.426,0,4.852-0.926,6.704-2.778    c3.704-3.704,3.704-9.704,0-13.407l-52.442-52.442C400.969,429.271,483.555,349.306,483.555,256z" />
      <path id="path8" d="M228.083,425.148c-103-11.287-180.675-84-180.675-169.148c0-77.356,62.541-143.685,151.592-164.192l-40.657,54.211    c-3.148,4.185-2.296,10.13,1.898,13.268c1.704,1.278,3.694,1.898,5.676,1.898c2.889,0,5.731-1.306,7.592-3.796l56.889-75.852    c2.667-3.556,2.509-8.481-0.389-11.852L173.12,3.316c-3.398-3.991-9.389-4.435-13.361-1.028    c-3.982,3.407-4.444,9.389-1.028,13.361l47.403,55.312C102.454,90.151,28.445,166.341,28.445,256    c0,94.842,84.935,175.657,197.564,188c0.352,0.037,0.704,0.055,1.046,0.055c4.778,0,8.88-3.592,9.417-8.444    C237.037,430.398,233.287,425.722,228.083,425.148z" />

      <g transform="translate(4.3389831,-8.6779661)" id="g3990">
         <path style="fill:#c7cfe2;stroke-width:0.43444791" d="m 228.20036,323.88692 v 13.21302 c 0,9.68989 8.9598,17.54481 20.0127,17.54481 v 0 c 11.05289,0 20.0127,-7.85492 20.0127,-17.54481 v -13.21302 z" id="path3859" />
         <path style="opacity:0.1;stroke-width:0.43444791;enable-background:new" d="m 243.35593,337.09994 v -13.21302 h -15.15511 v 13.21302 c 0,9.68989 8.95981,17.54481 20.0127,17.54481 2.68238,0 5.23947,-0.46576 7.57755,-1.30576 -7.29451,-2.61885 -12.43514,-8.90116 -12.43514,-16.23905 z" id="path3861" />
         <path style="fill:#ffd782;stroke-width:0.43093374" d="m 248.05647,184.5181 c -33.92233,-0.40922 -62.31983,24.53898 -62.31983,54.7676 0,12.048 4.36937,23.18522 11.76777,32.22875 11.87369,17.61558 17.51356,25.82277 19.21593,36.576 0.72998,4.61043 5.15094,8.04203 10.37629,8.04203 l 20.88443,-10e-4 z" id="path3863" />
         <path style="opacity:0.1;stroke-width:0.43444791;enable-background:new" d="m 237.43438,308.09003 c -1.73071,-10.75321 -7.46248,-18.96 -19.53061,-36.576 -7.52001,-9.04352 -11.96048,-20.18074 -11.96048,-32.22874 0,-26.98495 23.00225,-49.76013 52.46566,-54.04638 -3.04197,-0.43809 -6.15864,-0.68338 -9.33193,-0.72162 -34.47784,-0.40922 -63.34038,24.53898 -63.34038,54.76759 0,12.048 4.44092,23.18523 11.96048,32.22875 12.06813,17.616 17.7999,25.82278 19.53061,36.576 0.74193,4.61044 5.23529,8.04163 10.54621,8.04163 h 20.20712 c -5.31138,7.5e-4 -9.80475,-3.43078 -10.54668,-8.04123 z" id="path3865" />
         <path style="fill:#b4bbcc;stroke-width:0.43444791" d="m 276.43017,323.88692 -28.21665,-7.75485 -28.21665,7.75485 c -4.88543,0 -8.84566,3.47227 -8.84566,7.75485 0,4.28298 3.96069,7.75525 8.84566,7.75525 h 56.43284 c 4.88543,0 8.84566,-3.47227 8.84566,-7.75525 4.7e-4,-4.28258 -3.96023,-7.75485 -8.8452,-7.75485 z" id="path3867" />
         <path style="opacity:0.1;stroke-width:0.43444791;enable-background:new" d="m 231.35787,331.64217 c 0,-4.28298 3.96068,-7.75485 8.84612,-7.75485 l 18.11309,-4.97776 -10.10356,-2.77668 -28.21665,7.75485 c -4.88543,0 -8.84613,3.47227 -8.84613,7.75485 0,4.28298 3.9607,7.75525 8.84613,7.75525 h 20.20712 c -4.88544,-7.5e-4 -8.84612,-3.47227 -8.84612,-7.75566 z" id="path3869" />
         <path style="fill:#c7cfe2;stroke-width:0.43444791" d="m 276.43017,308.37682 h -56.4333 c -4.88543,0 -8.84566,3.47227 -8.84566,7.75484 v 0 c 0,4.28299 3.96069,7.75485 8.84566,7.75485 h 56.43284 c 4.88543,0 8.84566,-3.47227 8.84566,-7.75485 v 0 c 4.7e-4,-4.28257 -3.96023,-7.75484 -8.8452,-7.75484 z" id="path3871" />
         <path style="opacity:0.1;stroke-width:0.43444791;enable-background:new" d="m 231.35787,316.13207 c 0,-4.28298 3.96068,-7.75485 8.84612,-7.75485 h -20.20712 c -4.88543,0 -8.84613,3.47227 -8.84613,7.75485 0,4.28298 3.9607,7.75485 8.84613,7.75485 h 20.20712 c -4.88544,0 -8.84612,-3.47146 -8.84612,-7.75485 z" id="path3873" />
         <path d="m 244.42452,153.01668 v 18.0541 c 0,1.83458 1.69637,3.32176 3.789,3.32176 2.09264,0 3.78901,-1.48718 3.78901,-3.32176 v -18.0541 c 0,-1.83458 -1.69637,-3.32177 -3.78901,-3.32177 -2.09263,0 -3.789,1.48719 -3.789,3.32177 z" id="path3875" style="stroke-width:0.43444791" />
         <path d="m 188.53548,167.18685 9.85068,15.85464 c 0.68765,1.10685 1.98777,1.73329 3.33058,1.73329 0.61247,0 1.2333,-0.13017 1.80912,-0.40515 1.8379,-0.87743 2.5158,-2.89506 1.51496,-4.5059 l -9.85068,-15.85465 c -1.00084,-1.61125 -3.30227,-2.20596 -5.13971,-1.32813 -1.83697,0.87783 -2.51533,2.89505 -1.51495,4.5059 z" id="path3877" style="stroke-width:0.43444791" />
         <path d="m 147.18815,203.06807 17.30156,9.792 c 0.63567,0.36 1.34745,0.53125 2.05133,0.53125 1.24305,0 2.46151,-0.53613 3.18674,-1.52054 1.13494,-1.54129 0.6301,-3.59715 -1.12798,-4.59213 l -17.30156,-9.792 c -1.75856,-0.9954 -4.10314,-0.55282 -5.23807,0.98888 -1.13541,1.54129 -0.63012,3.59755 1.12798,4.59254 z" id="path3879" style="stroke-width:0.43444791" />
         <path d="m 291.34632,282.35228 c 0.60598,0.31525 1.27275,0.46535 1.92977,0.46535 1.29362,0 2.55431,-0.58088 3.2619,-1.62712 1.52053,-2.24665 3.17422,-4.66006 4.97592,-7.28949 l 0.37769,-0.55119 c 8.2355,-9.95674 12.58688,-21.7322 12.58688,-34.06454 0,-15.3779 -6.78643,-29.87309 -19.1093,-40.81464 -12.31126,-10.9314 -28.73354,-17.06645 -46.24158,-17.27391 -18.22677,-0.20175 -35.99558,6.40597 -48.78151,18.16719 -1.44396,1.32814 -1.38643,3.43038 0.12899,4.69627 1.51495,1.2655 3.91336,1.21546 5.35686,-0.11308 11.3364,-10.42861 27.07985,-16.30739 43.19405,-16.10807 15.50496,0.18427 30.04897,5.61763 40.952,15.29898 10.9137,9.69031 16.92387,22.52787 16.92387,36.14726 0,10.96596 -3.88413,21.43403 -11.23293,30.27254 -0.0664,0.0797 -0.12853,0.16149 -0.18653,0.24611 l -0.46307,0.67566 c -1.80913,2.6404 -3.47024,5.0644 -4.99726,7.3204 -1.06812,1.57831 -0.47513,3.61586 1.32425,4.55228 z" id="path3885" style="stroke-width:0.43444791" />
         <path d="m 287.60928,288.05248 c -1.86017,-0.83797 -4.14489,-0.19566 -5.10166,1.43634 -3.41317,5.82304 -5.45151,10.62549 -6.56464,15.56664 h -55.45891 c -2.25643,-10.02875 -8.08331,-18.53166 -18.86152,-34.26183 l -0.67791,-0.98888 c -0.058,-0.0846 -0.12017,-0.16638 -0.18653,-0.24651 -7.3488,-8.83851 -11.23292,-19.30658 -11.23292,-30.27254 0,-8.86414 2.7,-17.64611 7.80909,-25.39607 1.04724,-1.58807 0.42687,-3.61993 -1.38457,-4.53763 -1.81099,-0.9181 -4.12867,-0.37464 -5.1759,1.21383 -5.77354,8.75919 -8.82525,18.69031 -8.82525,28.71987 0,12.33193 4.35137,24.10739 12.58688,34.06454 l 0.59252,0.86441 c 10.82787,15.80298 16.11605,23.52244 18.02772,32.61355 -3.48184,1.97451 -5.79255,5.40611 -5.79255,9.30428 0,3.01749 1.38457,5.75512 3.62475,7.75484 -2.23972,1.99973 -3.62475,4.73777 -3.62475,7.75485 0,6.1078 5.6682,11.07702 12.6342,11.07702 h 5.29747 c 2.82575,8.8682 12.15025,15.24692 22.91872,15.24692 10.76847,0 20.09298,-6.37831 22.91919,-15.24733 h 5.29746 c 6.96694,0 12.63421,-4.96922 12.63421,-11.07701 0,-3.01749 -1.38457,-5.75512 -3.62476,-7.75485 2.23972,-1.99973 3.62476,-4.73776 3.62476,-7.75485 0,-3.89817 -2.31071,-7.33017 -5.79255,-9.30427 0.94655,-4.512 2.74501,-8.79132 5.97536,-14.30278 0.95677,-1.63159 0.22272,-3.63417 -1.63791,-4.47254 z m -39.39576,63.27051 c -6.59527,0 -12.39617,-3.50848 -14.90222,-8.60421 h 29.80445 c -2.50698,5.09573 -8.30788,8.60421 -14.90223,8.60421 z m 17.67972,-24.11431 h 10.53647 c 2.78863,0 5.05665,1.98915 5.05665,4.43309 0,2.44474 -2.26895,4.43349 -5.05665,4.43349 h -56.4333 c -2.78863,0 -5.05665,-1.98915 -5.05665,-4.43349 0,-2.44434 2.26894,-4.43309 5.05665,-4.43309 h 30.91665 c 2.09264,0 3.78901,-1.48719 3.78901,-3.32176 0,-1.83458 -1.69637,-3.32176 -3.78901,-3.32176 h -30.91665 c -2.78863,0 -5.05665,-1.98916 -5.05665,-4.43309 0,-2.00176 1.52144,-3.696 3.60341,-4.24515 0.19534,-0.0512 0.39485,-0.0899 0.5967,-0.12 0.0608,-0.009 0.1211,-0.0171 0.18235,-0.0244 0.22272,-0.0257 0.4473,-0.0443 0.67419,-0.0443 h 56.43284 c 0.22735,0 0.45146,0.0183 0.67419,0.0443 0.0617,0.007 0.12202,0.0154 0.18327,0.0248 0.19998,0.0297 0.39811,0.0683 0.59206,0.11919 2.08382,0.54793 3.60759,2.24257 3.60759,4.24596 0,2.44475 -2.26895,4.43309 -5.05665,4.43309 h -10.53647 c -2.09263,0 -3.78901,1.48718 -3.78901,3.32176 0,1.83458 1.69638,3.32136 3.78901,3.32136 z" id="path3887" style="stroke-width:0.43444791" />
      </g>
   </g>
</svg>