<?xml version="1.0" encoding="iso-8859-1"?>
<!-- Generator: Adobe Illustrator 18.0.0, SVG Export Plug-In . SVG Version: 6.00 Build 0)  -->
<!DOCTYPE svg PUBLIC "-//W3C//DTD SVG 1.1//EN" "http://www.w3.org/Graphics/SVG/1.1/DTD/svg11.dtd">
<svg version="1.1" id="Capa_1" xmlns="http://www.w3.org/2000/svg" xmlns:xlink="http://www.w3.org/1999/xlink" x="0px" y="0px"
	 viewBox="0 0 429.323 429.323" style="enable-background:new 0 0 429.323 429.323;" xml:space="preserve">
<g fill="__GREY__">
<path d="M409.441,165.129c-24.162-25.414-56.773-39.41-91.826-39.41c-16.649,0-33.643,3.955-49.613,11.045
	c21.49-31.975,53.605-54.818,90.273-63.678c2.221-0.537,3.797-2.51,3.826-4.793c0.029-2.285-1.492-4.299-3.697-4.894
	c-11.281-3.043-22.947-4.586-34.672-4.586c-31.272,0.002-57.99,8.405-79.798,25.039c-4.28-57.216-24.599-81.34-25.495-82.375
	c-1.807-2.088-6.119-1.852-7.545,0.014c0,0-21.48,25.426-25.589,83.394c-22.52-16.742-50.23-26.071-79.714-26.071
	c-11.728,0-23.393,1.543-34.67,4.586c-2.206,0.596-3.728,2.609-3.697,4.894c0.029,2.283,1.604,4.256,3.824,4.793
	c36.752,8.88,70.492,33.535,91.848,66.217c-16.148-8.893-33.521-13.584-51.187-13.584c-35.051,0-67.662,13.998-91.826,39.416
	c-1.504,1.582-1.809,3.955-0.752,5.865c1.057,1.91,3.231,2.916,5.367,2.48c14.791-2.99,28.797-4.508,41.629-4.508
	c34.711,0,58.385,11.086,74.684,25.869c-7.024,0.42-16.035,1.841-25.871,6.045c-19.516,8.338-35.735,24.809-48.208,48.953
	c-1.031,1.996-0.604,4.436,1.046,5.963c1.649,1.527,4.113,1.768,6.025,0.584c29.143-18.014,56.732-14.166,70.584-10.27
	c10.956,3.081,20.557,8.229,26.762,14.061h-65.754c-2.761,0-5,2.238-5,5v41.121c0,2.762,2.239,5,5,5h17.922l16.877,113.756
	c0.364,2.451,2.469,4.268,4.946,4.268h139.046c2.477,0,4.582-1.816,4.945-4.268l16.878-113.756h17.921c2.762,0,5-2.238,5-5v-41.121
	c0-2.762-2.238-5-5-5h-64.641c10.752-10.247,23.62-16.261,38.408-17.857c27.309-2.957,52.568,9.777,57.285,13.641
	c1.799,1.473,4.375,1.51,6.219,0.092c1.844-1.42,2.463-3.922,1.496-6.039c-0.627-1.371-1.256-2.789-1.902-4.244
	c-8.389-18.863-20.635-46.389-61.583-50.488c22.331-13.405,55.492-21.707,106.607-21.707c1.998,0,3.807-1.191,4.594-3.027
	C411.201,168.71,410.818,166.579,409.441,165.129z M323.732,68.813c4.236,0,8.463,0.219,12.664,0.65
	c-36.057,13.9-66.512,40.901-85.498,76.332c-15.674,9.693-29.674,22.498-40.453,37.518c-2.811-4.053-5.805-7.986-8.988-11.77
	C219.447,101.408,267.587,68.816,323.732,68.813z M214.679,13.606c6.06,10.086,17.452,35.779,19.666,78.403
	c-4.818,4.54-14.018,14.388-19.609,23.304c-5.792-8.324-12.424-15.86-19.773-22.504C197.136,50.264,208.611,23.78,214.679,13.606z
	 M92.736,69.483c4.264-0.445,8.555-0.67,12.855-0.67c42.397,0,80.813,20.824,103.379,55.848
	c-8.32,14.674-13.058,28.621-15.605,37.979c-3.842-3.902-7.823-7.51-11.922-10.824C163.384,114.489,130.505,84.308,92.736,69.483z
	 M66.126,158.973c-8.498,0-17.463,0.627-26.793,1.873c20.499-16.303,45.669-25.127,72.375-25.127
	c62.662,0,111.914,64.654,116.348,124.459h-41.437C186.544,259.887,173.835,158.973,66.126,158.973z M147.094,236.491
	c-12.897-3.629-36.478-7.221-62.786,3.387c24.813-35.817,54.647-35.5,65.99-35.116c12.32,14.841,18.977,31.496,22.868,44.123
	C166.147,243.671,157.14,239.316,147.094,236.491z M279.873,419.323h-130.42l-16.028-108.023h162.474L279.873,419.323z
	 M318.929,301.299H110.394v-31.121h208.535V301.299z M347.435,240.659c-12.473-5.273-31.215-10.396-50.813-8.281
	c-14.908,1.611-28.1,7.085-39.422,16.286c6.113-16.345,14.519-31.505,28.82-43.864C324.625,203.997,338.52,222.462,347.435,240.659z
	 M242.818,260.178h-4.737c-1.564-23.227-9.216-46.801-21.769-67.777c22.731-34.014,63.045-56.682,101.303-56.682
	c28.252,0,54.781,9.871,75.881,28.023C295.662,162.593,254.582,205.563,242.818,260.178z"/>
</g>
</svg>
