<?xml version="1.0" encoding="iso-8859-1"?>
<!-- Generator: Adobe Illustrator 19.0.0, SVG Export Plug-In . SVG Version: 6.00 Build 0)  -->
<svg version="1.1" id="Layer_1" xmlns="http://www.w3.org/2000/svg" xmlns:xlink="http://www.w3.org/1999/xlink" x="0px" y="0px"
	 viewBox="0 0 202.621 202.621" style="enable-background:new 0 0 202.621 202.621;" xml:space="preserve">
<g fill="__LIGHTGREY__">
    <path d="M42.852,95.465c0.001,0,0.002,0,0.002,0h116.913c23.63,0,42.854-19.228,42.854-42.862
        c0-23.634-19.224-42.862-42.855-42.862H42.854c0,0-0.002,0-0.003,0C19.222,9.748,0,28.972,0,52.604
        C0,76.235,19.222,95.459,42.852,95.465z M159.766,17.535c19.334,0,35.061,15.733,35.061,35.069
        c0,19.336-15.727,35.069-35.061,35.069H67.429c11.045-7.761,18.295-20.575,18.295-35.069c0-14.494-7.25-27.308-18.295-35.069
        H159.766z M42.862,17.535c19.338,0,35.069,15.733,35.069,35.069c0,19.336-15.731,35.069-35.069,35.069S7.793,71.941,7.793,52.604
        C7.793,33.267,23.524,17.535,42.862,17.535z"/>
    <path d="M42.862,75.983c12.892,0,23.379-10.487,23.379-23.379c0-12.892-10.487-23.38-23.379-23.38S19.483,39.712,19.483,52.604
        C19.483,65.496,29.97,75.983,42.862,75.983z M42.862,37.017c8.596,0,15.586,6.992,15.586,15.586
        c0,8.594-6.99,15.587-15.586,15.587s-15.586-6.992-15.586-15.586S34.266,37.017,42.862,37.017z"/>
    <path d="M159.769,107.157c-0.001,0-0.002,0-0.002,0H42.854C19.224,107.155,0,126.384,0,150.017
        c0,23.634,19.224,42.862,42.854,42.862h116.912c0,0,0.002,0,0.003,0c23.63-0.006,42.852-19.231,42.852-42.862
        C202.621,126.386,183.399,107.162,159.769,107.157z M42.854,185.087c-19.334,0-35.061-15.733-35.061-35.069
        s15.727-35.069,35.061-35.069h92.337c-11.045,7.761-18.295,20.575-18.295,35.069c0,14.494,7.25,27.308,18.295,35.069H42.854z
         M159.759,185.087c-19.338,0-35.069-15.733-35.069-35.069s15.731-35.069,35.069-35.069c19.338,0,35.069,15.733,35.069,35.069
        S179.097,185.087,159.759,185.087z"/>
    <path d="M159.759,126.639c-12.892,0-23.379,10.487-23.379,23.379c0,12.892,10.487,23.379,23.379,23.379
        c12.892,0,23.379-10.487,23.379-23.379C183.138,137.126,172.651,126.639,159.759,126.639z M159.759,165.603
        c-8.596,0-15.586-6.992-15.586-15.586s6.99-15.586,15.586-15.586c8.596,0,15.586,6.992,15.586,15.586
        S168.355,165.603,159.759,165.603z"/>
</g>
</svg>
